#!OML:ASF H:\Punching\Project 1\Capture day 1\Session 1\female.ASF
:FULLY-SPECIFIED
:DEGREES
1760
root -0.790324 15.6103 5.78483 15.3616 -0.488696 1.45214
lowerback -2.89882 -0.917039 2.00585
upperback -6.12158 -1.22574 0.0891317
thorax -4.73835 -0.704568 -1.01343
lowerneck -11.8174 2.48688 8.28022
upperneck 24.6216 2.47118 -3.31841
head 9.91618 1.53588 -2.2709
rclavicle 3.03147e-015 1.19271e-015
rhumerus -55.863 -4.98183 -77.6367
rradius 40.372
rwrist -12.378
rhand -1.72995 -21.8431
rfingers 7.12502
rthumb 23.9324 -50.3716
lclavicle 3.03147e-015 1.19271e-015
lhumerus -63.8833 11.2245 79.5919
lradius 44.087
lwrist 11.2515
lhand 0.944756 23.9786
lfingers 7.12502
lthumb 26.495 52.1461
rfemur -20.5295 2.5507 20.5896
rtibia 33.2381
rfoot -24.5389 -23.6915
rtoes 3.76897
lfemur -13.8967 -16.5558 -11.9854
ltibia 18.6962
lfoot -19.2738 26.4654
ltoes -1.96299
1761
root -0.778899 15.6048 5.77733 15.4172 -0.435925 1.42235
lowerback -2.99551 -0.937361 2.03038
upperback -6.16594 -1.25279 0.141189
thorax -4.73066 -0.718177 -0.974183
lowerneck -11.7999 2.51908 8.30793
upperneck 24.4919 2.55163 -3.47596
head 9.87314 1.55637 -2.32012
rclavicle 8.41108e-015 5.56597e-015
rhumerus -55.7251 -4.91153 -77.4897
rradius 40.8611
rwrist -10.2644
rhand -2.25752 -21.6244
rfingers 7.12502
rthumb 23.4264 -50.2184
lclavicle 8.41108e-015 5.56597e-015
lhumerus -63.7321 11.2674 79.0845
lradius 44.3816
lwrist 11.3236
lhand 0.363053 24.1188
lfingers 7.12502
lthumb 25.9381 52.3692
rfemur -20.7112 2.52791 20.5874
rtibia 33.4256
rfoot -24.604 -23.7276
rtoes 3.83014
lfemur -13.8879 -17.5904 -11.882
ltibia 18.5347
lfoot -19.5388 27.3907
ltoes -1.60376
1762
root -0.768059 15.6003 5.77016 15.4403 -0.402298 1.42305
lowerback -3.05731 -0.963408 2.01677
upperback -6.20484 -1.28715 0.184393
thorax -4.73639 -0.733971 -0.922131
lowerneck -11.7729 2.55602 8.34489
upperneck 24.3701 2.63787 -3.63624
head 9.83195 1.5804 -2.37124
rclavicle 4.28629e-015 1.98785e-015
rhumerus -55.5106 -4.86513 -77.2571
rradius 41.2691
rwrist -7.69167
rhand -2.54307 -21.3808
rfingers 7.12502
rthumb 23.1524 -50.0095
lclavicle 4.28629e-015 1.98785e-015
lhumerus -63.5629 11.3192 78.4853
lradius 44.6716
lwrist 11.0194
lhand -0.1647 24.1078
lfingers 7.12502
lthumb 25.4326 52.4311
rfemur -20.8545 2.51478 20.5509
rtibia 33.6084
rfoot -24.677 -23.756
rtoes 3.92603
lfemur -13.8488 -18.4802 -11.823
ltibia 18.3978
lfoot -19.8211 28.1304
ltoes -1.21053
1763
root -0.758042 15.5967 5.76331 15.4277 -0.390479 1.46288
lowerback -3.08318 -0.994673 1.95574
upperback -6.23499 -1.32827 0.213621
thorax -4.75242 -0.751313 -0.857391
lowerneck -11.7456 2.59733 8.39336
upperneck 24.2606 2.72737 -3.79622
head 9.79589 1.60732 -2.42391
rclavicle 3.13707e-015 1.98785e-015
rhumerus -55.2296 -4.83367 -76.9619
rradius 41.6351
rwrist -4.74022
rhand -2.63168 -21.1812
rfingers 7.12502
rthumb 23.0674 -49.8206
lclavicle 3.13707e-015 1.98785e-015
lhumerus -63.3862 11.3778 77.8076
lradius 45.0131
lwrist 10.3532
lhand -0.75748 24.0378
lfingers 7.12502
lthumb 24.8646 52.4408
rfemur -20.9596 2.50894 20.4716
rtibia 33.7931
rfoot -24.7593 -23.7759
rtoes 4.0369
lfemur -13.7635 -19.1819 -11.826
ltibia 18.2606
lfoot -20.0807 28.6547
ltoes -0.863873
